<svg xmlns="http://www.w3.org/2000/svg" xmlns:xlink="http://www.w3.org/1999/xlink" width="500" zoomAndPan="magnify" viewBox="0 0 375 374.999991" height="500" preserveAspectRatio="xMidYMid meet" version="1.0"><defs><g/><clipPath id="a338cee1f2"><path d="M 220 75 L 222.65625 75 L 222.65625 180 L 220 180 Z M 220 75 " clip-rule="nonzero"/></clipPath><clipPath id="35a12eb8c6"><path d="M 194 155 L 198 155 L 198 194.808594 L 194 194.808594 Z M 194 155 " clip-rule="nonzero"/></clipPath><clipPath id="45cb336af6"><path d="M 190 158 L 194 158 L 194 194.808594 L 190 194.808594 Z M 190 158 " clip-rule="nonzero"/></clipPath><clipPath id="f0ec276a20"><path d="M 134.90625 162 L 138 162 L 138 171 L 134.90625 171 Z M 134.90625 162 " clip-rule="nonzero"/></clipPath></defs><g clip-path="url(#a338cee1f2)"><path fill="#ffbd59" d="M 220.128906 169.632812 C 220.128906 169.796875 220.277344 176.449219 220.523438 178.78125 C 220.644531 179.980469 220.789062 180.082031 220.949219 178.617188 C 221.109375 177.230469 221.285156 174.273438 221.472656 171.113281 C 221.476562 171.019531 221.484375 170.929688 221.488281 170.839844 C 221.675781 167.679688 221.851562 164.648438 222.011719 163.121094 C 222.171875 161.523438 222.316406 161.429688 222.4375 162.382812 C 222.679688 164.226562 222.832031 170.210938 222.832031 169.628906 C 222.832031 141.765625 222.832031 113.902344 222.832031 86.042969 C 222.832031 85.882812 222.683594 79.226562 222.4375 76.894531 C 222.316406 75.695312 222.171875 75.59375 222.011719 77.054688 C 221.851562 78.441406 221.675781 81.398438 221.488281 84.5625 C 221.484375 84.652344 221.480469 84.742188 221.472656 84.832031 C 221.289062 87.996094 221.109375 91.027344 220.949219 92.550781 C 220.789062 94.152344 220.644531 94.242188 220.523438 93.289062 C 220.277344 91.445312 220.128906 85.460938 220.128906 86.042969 C 220.128906 113.910156 220.128906 141.769531 220.128906 169.632812 Z M 220.128906 169.632812 " fill-opacity="1" fill-rule="nonzero"/></g><path fill="#ffbd59" d="M 215.886719 176.882812 C 215.886719 177.054688 216.035156 184.28125 216.28125 186.808594 C 216.402344 188.109375 216.546875 188.222656 216.710938 186.632812 C 216.871094 185.128906 217.046875 181.921875 217.230469 178.488281 C 217.234375 178.390625 217.242188 178.292969 217.246094 178.195312 C 217.429688 174.761719 217.605469 171.472656 217.769531 169.820312 C 217.929688 168.082031 218.078125 167.980469 218.195312 169.015625 C 218.441406 171.015625 218.589844 177.511719 218.589844 176.882812 C 218.589844 146.640625 218.589844 116.402344 218.589844 86.160156 C 218.589844 85.988281 218.4375 78.761719 218.195312 76.230469 C 218.074219 74.929688 217.929688 74.816406 217.769531 76.410156 C 217.609375 77.914062 217.433594 81.121094 217.246094 84.554688 C 217.242188 84.652344 217.234375 84.75 217.230469 84.847656 C 217.046875 88.28125 216.871094 91.570312 216.710938 93.222656 C 216.546875 94.960938 216.402344 95.0625 216.28125 94.027344 C 216.039062 92.027344 215.886719 85.53125 215.886719 86.160156 C 215.886719 116.402344 215.886719 146.640625 215.886719 176.882812 Z M 215.886719 176.882812 " fill-opacity="1" fill-rule="nonzero"/><path fill="#ffbd59" d="M 211.640625 182.933594 C 211.640625 183.109375 211.792969 190.332031 212.035156 192.863281 C 212.15625 194.164062 212.300781 194.277344 212.460938 192.6875 C 212.621094 191.183594 212.800781 187.972656 212.984375 184.542969 C 212.988281 184.441406 212.996094 184.34375 213 184.246094 C 213.183594 180.816406 213.363281 177.523438 213.523438 175.871094 C 213.683594 174.132812 213.828125 174.035156 213.953125 175.070312 C 214.191406 177.070312 214.34375 183.566406 214.34375 182.933594 C 214.34375 152.695312 214.34375 122.453125 214.34375 92.210938 C 214.34375 92.035156 214.191406 84.816406 213.953125 82.28125 C 213.828125 80.984375 213.683594 80.871094 213.523438 82.457031 C 213.363281 83.964844 213.183594 87.171875 213 90.605469 C 212.996094 90.703125 212.988281 90.800781 212.984375 90.898438 C 212.800781 94.332031 212.625 97.621094 212.460938 99.273438 C 212.300781 101.011719 212.15625 101.109375 212.035156 100.078125 C 211.792969 98.074219 211.640625 91.578125 211.640625 92.210938 C 211.640625 122.453125 211.640625 152.695312 211.640625 182.933594 Z M 211.640625 182.933594 " fill-opacity="1" fill-rule="nonzero"/><path fill="#ffbd59" d="M 207.40625 186.066406 C 207.40625 186.378906 207.558594 188.976562 207.800781 189.96875 C 207.925781 190.476562 208.066406 190.582031 208.226562 190.105469 C 208.390625 189.65625 208.566406 188.628906 208.75 187.503906 C 208.753906 187.480469 208.757812 187.457031 208.765625 187.433594 C 208.949219 186.308594 209.125 185.203125 209.289062 184.613281 C 209.445312 183.996094 209.59375 183.890625 209.714844 184.148438 C 209.957031 184.632812 210.109375 186.527344 210.109375 186.066406 C 210.109375 176.792969 210.109375 167.519531 210.109375 158.25 C 210.109375 157.9375 209.957031 155.339844 209.714844 154.347656 C 209.589844 153.839844 209.445312 153.734375 209.289062 154.210938 C 209.128906 154.660156 208.953125 155.6875 208.765625 156.8125 C 208.757812 156.832031 208.753906 156.859375 208.75 156.878906 C 208.566406 158.003906 208.390625 159.113281 208.226562 159.703125 C 208.066406 160.320312 207.925781 160.421875 207.800781 160.171875 C 207.558594 159.683594 207.40625 157.789062 207.40625 158.25 C 207.40625 167.523438 207.40625 176.792969 207.40625 186.066406 Z M 207.40625 186.066406 " fill-opacity="1" fill-rule="nonzero"/><path fill="#ffbd59" d="M 203.183594 188.136719 C 203.183594 188.472656 203.335938 191.253906 203.578125 192.320312 C 203.695312 192.863281 203.84375 192.972656 204.003906 192.464844 C 204.164062 191.980469 204.339844 190.882812 204.527344 189.679688 C 204.53125 189.652344 204.535156 189.628906 204.539062 189.601562 C 204.722656 188.398438 204.902344 187.214844 205.0625 186.582031 C 205.222656 185.921875 205.367188 185.808594 205.488281 186.082031 C 205.730469 186.601562 205.882812 188.632812 205.882812 188.136719 C 205.882812 178.207031 205.882812 168.28125 205.882812 158.351562 C 205.882812 158.015625 205.730469 155.234375 205.488281 154.167969 C 205.367188 153.621094 205.222656 153.515625 205.0625 154.023438 C 204.902344 154.503906 204.726562 155.601562 204.539062 156.808594 C 204.535156 156.832031 204.53125 156.859375 204.527344 156.886719 C 204.339844 158.089844 204.164062 159.269531 204.003906 159.90625 C 203.84375 160.566406 203.695312 160.675781 203.578125 160.40625 C 203.335938 159.882812 203.183594 157.855469 203.183594 158.351562 C 203.183594 168.277344 203.183594 178.207031 203.183594 188.136719 Z M 203.183594 188.136719 " fill-opacity="1" fill-rule="nonzero"/><path fill="#ffbd59" d="M 198.949219 189.082031 C 198.949219 189.417969 199.097656 192.199219 199.34375 193.265625 C 199.464844 193.808594 199.609375 193.917969 199.769531 193.40625 C 199.929688 192.929688 200.109375 191.824219 200.292969 190.621094 C 200.292969 190.597656 200.300781 190.570312 200.304688 190.546875 C 200.492188 189.34375 200.667969 188.15625 200.828125 187.527344 C 200.988281 186.863281 201.132812 186.753906 201.253906 187.027344 C 201.496094 187.546875 201.648438 189.578125 201.648438 189.082031 C 201.648438 179.152344 201.648438 169.222656 201.648438 159.292969 C 201.648438 158.957031 201.496094 156.175781 201.253906 155.113281 C 201.132812 154.570312 200.988281 154.457031 200.828125 154.96875 C 200.667969 155.449219 200.492188 156.550781 200.304688 157.753906 C 200.300781 157.777344 200.296875 157.800781 200.292969 157.828125 C 200.109375 159.03125 199.929688 160.214844 199.769531 160.847656 C 199.609375 161.507812 199.464844 161.621094 199.34375 161.347656 C 199.101562 160.828125 198.949219 158.796875 198.949219 159.292969 C 198.949219 169.226562 198.949219 179.152344 198.949219 189.082031 Z M 198.949219 189.082031 " fill-opacity="1" fill-rule="nonzero"/><g clip-path="url(#35a12eb8c6)"><path fill="#ffbd59" d="M 194.714844 190.28125 C 194.714844 190.617188 194.867188 193.398438 195.109375 194.460938 C 195.230469 195.007812 195.375 195.117188 195.535156 194.605469 C 195.699219 194.125 195.875 193.027344 196.058594 191.820312 C 196.0625 191.796875 196.066406 191.773438 196.070312 191.746094 C 196.257812 190.542969 196.433594 189.355469 196.59375 188.726562 C 196.753906 188.0625 196.902344 187.953125 197.023438 188.226562 C 197.265625 188.746094 197.417969 190.777344 197.417969 190.28125 C 197.417969 180.351562 197.417969 170.421875 197.417969 160.496094 C 197.417969 160.160156 197.265625 157.378906 197.023438 156.3125 C 196.902344 155.769531 196.753906 155.660156 196.59375 156.167969 C 196.433594 156.648438 196.257812 157.75 196.070312 158.953125 C 196.066406 158.976562 196.0625 159.003906 196.058594 159.027344 C 195.875 160.230469 195.699219 161.417969 195.535156 162.046875 C 195.375 162.710938 195.230469 162.816406 195.109375 162.546875 C 194.867188 162.027344 194.714844 159.996094 194.714844 160.492188 C 194.714844 170.421875 194.714844 180.351562 194.714844 190.28125 Z M 194.714844 190.28125 " fill-opacity="1" fill-rule="nonzero"/></g><g clip-path="url(#45cb336af6)"><path fill="#ffbd59" d="M 190.480469 190.386719 C 190.480469 190.699219 190.632812 193.28125 190.875 194.269531 C 190.996094 194.777344 191.140625 194.878906 191.300781 194.402344 C 191.460938 193.957031 191.636719 192.9375 191.824219 191.820312 C 191.828125 191.796875 191.832031 191.773438 191.839844 191.75 C 192.023438 190.632812 192.199219 189.53125 192.359375 188.945312 C 192.519531 188.332031 192.664062 188.230469 192.785156 188.480469 C 193.03125 188.960938 193.183594 190.847656 193.183594 190.386719 C 193.183594 181.175781 193.183594 171.960938 193.183594 162.75 C 193.183594 162.4375 193.03125 159.855469 192.785156 158.867188 C 192.664062 158.363281 192.523438 158.261719 192.359375 158.734375 C 192.199219 159.179688 192.023438 160.199219 191.839844 161.316406 C 191.832031 161.339844 191.828125 161.363281 191.824219 161.386719 C 191.636719 162.503906 191.460938 163.605469 191.300781 164.191406 C 191.140625 164.804688 190.996094 164.90625 190.875 164.65625 C 190.632812 164.171875 190.480469 162.289062 190.480469 162.75 C 190.480469 171.960938 190.480469 181.175781 190.480469 190.386719 Z M 190.480469 190.386719 " fill-opacity="1" fill-rule="nonzero"/></g><path fill="#ffbd59" d="M 186.441406 188.371094 C 186.441406 188.652344 186.582031 190.890625 186.808594 191.742188 C 186.921875 192.179688 187.058594 192.265625 187.207031 191.855469 C 187.355469 191.46875 187.519531 190.585938 187.691406 189.621094 C 187.867188 188.660156 188.027344 187.707031 188.179688 187.195312 C 188.332031 186.65625 188.464844 186.558594 188.578125 186.769531 C 188.804688 187.167969 188.945312 188.78125 188.945312 188.371094 C 188.945312 180.5 188.945312 172.636719 188.945312 164.765625 C 188.945312 164.484375 188.804688 162.246094 188.578125 161.394531 C 188.464844 160.957031 188.332031 160.871094 188.179688 161.28125 C 188.03125 161.667969 187.867188 162.550781 187.691406 163.515625 C 187.519531 164.476562 187.355469 165.429688 187.207031 165.945312 C 187.058594 166.480469 186.917969 166.578125 186.808594 166.367188 C 186.582031 165.96875 186.445312 164.355469 186.441406 164.765625 C 186.441406 172.636719 186.441406 180.5 186.441406 188.371094 Z M 186.441406 188.371094 " fill-opacity="1" fill-rule="nonzero"/><path fill="#ffbd59" d="M 182.457031 187.152344 C 182.457031 187.453125 182.59375 189.265625 182.816406 189.980469 C 182.925781 190.347656 183.058594 190.4375 183.207031 190.132812 C 183.351562 189.84375 183.511719 189.167969 183.679688 188.421875 C 183.851562 187.675781 184.011719 186.925781 184.15625 186.515625 C 184.304688 186.082031 184.4375 185.984375 184.546875 186.125 C 184.765625 186.378906 184.90625 187.554688 184.90625 187.152344 C 184.90625 181.246094 184.90625 175.339844 184.90625 169.4375 C 184.90625 169.136719 184.765625 167.324219 184.546875 166.609375 C 184.4375 166.242188 184.304688 166.15625 184.15625 166.457031 C 184.011719 166.742188 183.847656 167.417969 183.679688 168.164062 C 183.511719 168.910156 183.351562 169.660156 183.207031 170.074219 C 183.058594 170.507812 182.925781 170.601562 182.816406 170.46875 C 182.59375 170.214844 182.457031 169.035156 182.457031 169.4375 C 182.457031 175.34375 182.457031 181.25 182.457031 187.152344 Z M 182.457031 187.152344 " fill-opacity="1" fill-rule="nonzero"/><path fill="#ffbd59" d="M 178.449219 182.949219 C 178.449219 183.210938 178.585938 184.414062 178.8125 184.84375 C 179.035156 185.351562 179.34375 185.085938 179.683594 184.183594 C 180.023438 183.28125 180.332031 182.742188 180.558594 182.800781 C 180.78125 182.785156 180.921875 183.367188 180.921875 182.949219 C 180.921875 180.183594 180.921875 177.421875 180.921875 174.660156 C 180.921875 174.394531 180.78125 173.195312 180.558594 172.761719 C 180.332031 172.257812 180.023438 172.519531 179.683594 173.421875 C 179.34375 174.324219 179.035156 174.863281 178.8125 174.804688 C 178.585938 174.824219 178.449219 174.238281 178.449219 174.660156 C 178.449219 177.421875 178.449219 180.1875 178.449219 182.949219 Z M 178.449219 182.949219 " fill-opacity="1" fill-rule="nonzero"/><path fill="#ffbd59" d="M 207.40625 128.425781 C 207.40625 128.636719 207.558594 130.335938 207.800781 130.457031 C 207.925781 130.527344 208.066406 130.195312 208.226562 129.34375 C 208.390625 128.515625 208.566406 127.167969 208.75 125.710938 C 208.753906 125.679688 208.757812 125.648438 208.765625 125.617188 C 208.949219 124.160156 209.125 122.761719 209.289062 121.828125 C 209.445312 120.878906 209.59375 120.394531 209.714844 120.289062 C 209.957031 120.054688 210.109375 121.253906 210.109375 120.917969 C 210.109375 115.394531 210.109375 109.875 210.109375 104.347656 C 210.109375 104.132812 209.957031 102.441406 209.714844 102.3125 C 209.589844 102.246094 209.445312 102.578125 209.289062 103.425781 C 209.128906 104.257812 208.953125 105.605469 208.765625 107.058594 C 208.757812 107.089844 208.753906 107.125 208.75 107.152344 C 208.566406 108.609375 208.390625 110.011719 208.226562 110.941406 C 208.066406 111.894531 207.925781 112.371094 207.800781 112.484375 C 207.558594 112.71875 207.40625 111.519531 207.40625 111.855469 C 207.40625 117.378906 207.40625 122.898438 207.40625 128.425781 Z M 207.40625 128.425781 " fill-opacity="1" fill-rule="nonzero"/><path fill="#ffbd59" d="M 203.183594 136.847656 C 203.183594 137.269531 203.335938 140.605469 203.578125 140.847656 C 203.695312 140.988281 203.84375 140.328125 204.003906 138.652344 C 204.164062 137.023438 204.339844 134.367188 204.527344 131.503906 C 204.53125 131.441406 204.535156 131.382812 204.539062 131.320312 C 204.722656 128.449219 204.902344 125.695312 205.0625 123.863281 C 205.222656 121.992188 205.367188 121.042969 205.488281 120.832031 C 205.730469 120.371094 205.882812 122.730469 205.882812 122.074219 C 205.882812 111.199219 205.882812 100.328125 205.882812 89.457031 C 205.882812 89.035156 205.730469 85.699219 205.488281 85.453125 C 205.367188 85.3125 205.222656 85.976562 205.0625 87.648438 C 204.902344 89.28125 204.726562 91.929688 204.539062 94.800781 C 204.535156 94.863281 204.53125 94.921875 204.527344 94.984375 C 204.339844 97.851562 204.164062 100.613281 204.003906 102.441406 C 203.84375 104.308594 203.695312 105.257812 203.578125 105.472656 C 203.335938 105.933594 203.183594 103.574219 203.183594 104.234375 C 203.183594 115.105469 203.183594 125.976562 203.183594 136.847656 Z M 203.183594 136.847656 " fill-opacity="1" fill-rule="nonzero"/><path fill="#ffbd59" d="M 198.949219 149.585938 C 198.949219 149.980469 199.097656 153.105469 199.34375 153.332031 C 199.464844 153.460938 199.609375 152.84375 199.769531 151.277344 C 199.929688 149.75 200.109375 147.269531 200.292969 144.574219 C 200.292969 144.515625 200.300781 144.464844 200.304688 144.40625 C 200.492188 141.722656 200.667969 139.128906 200.828125 137.417969 C 200.988281 135.664062 201.132812 134.777344 201.253906 134.578125 C 201.496094 134.144531 201.648438 136.359375 201.648438 135.742188 C 201.648438 125.554688 201.648438 115.371094 201.648438 105.183594 C 201.648438 104.789062 201.496094 101.664062 201.253906 101.429688 C 201.132812 101.300781 200.988281 101.917969 200.828125 103.484375 C 200.667969 105.011719 200.492188 107.5 200.304688 110.183594 C 200.300781 110.242188 200.296875 110.296875 200.292969 110.355469 C 200.109375 113.042969 199.929688 115.628906 199.769531 117.339844 C 199.609375 119.09375 199.464844 119.980469 199.34375 120.183594 C 199.101562 120.621094 198.949219 118.40625 198.949219 119.023438 C 198.949219 129.214844 198.949219 139.398438 198.949219 149.585938 Z M 198.949219 149.585938 " fill-opacity="1" fill-rule="nonzero"/><path fill="#ffbd59" d="M 194.714844 153.988281 C 194.714844 154.28125 194.867188 156.574219 195.109375 156.742188 C 195.230469 156.839844 195.375 156.382812 195.535156 155.230469 C 195.699219 154.105469 195.875 152.28125 196.058594 150.3125 C 196.0625 150.269531 196.066406 150.230469 196.070312 150.1875 C 196.257812 148.210938 196.433594 146.316406 196.59375 145.058594 C 196.753906 143.769531 196.902344 143.117188 197.023438 142.972656 C 197.265625 142.652344 197.417969 144.277344 197.417969 143.824219 C 197.417969 136.34375 197.417969 128.867188 197.417969 121.386719 C 197.417969 121.09375 197.265625 118.800781 197.023438 118.628906 C 196.902344 118.53125 196.753906 118.992188 196.59375 120.140625 C 196.433594 121.265625 196.257812 123.085938 196.070312 125.058594 C 196.066406 125.101562 196.0625 125.140625 196.058594 125.1875 C 195.875 127.15625 195.699219 129.054688 195.535156 130.316406 C 195.375 131.605469 195.230469 132.253906 195.109375 132.402344 C 194.867188 132.722656 194.714844 131.097656 194.714844 131.550781 C 194.714844 139.03125 194.714844 146.511719 194.714844 153.988281 Z M 194.714844 153.988281 " fill-opacity="1" fill-rule="nonzero"/><path fill="#ffbd59" d="M 190.480469 143.765625 C 190.480469 144.054688 190.632812 146.355469 190.875 146.519531 C 190.996094 146.617188 191.140625 146.160156 191.300781 145.011719 C 191.460938 143.886719 191.636719 142.066406 191.824219 140.09375 C 191.828125 140.050781 191.832031 140.011719 191.839844 139.964844 C 192.023438 137.996094 192.199219 136.097656 192.359375 134.835938 C 192.519531 133.546875 192.664062 132.898438 192.785156 132.75 C 193.03125 132.429688 193.183594 134.054688 193.183594 133.601562 C 193.183594 126.125 193.183594 118.644531 193.183594 111.164062 C 193.183594 110.875 193.03125 108.578125 192.785156 108.410156 C 192.664062 108.316406 192.523438 108.769531 192.359375 109.921875 C 192.199219 111.046875 192.023438 112.867188 191.839844 114.839844 C 191.832031 114.882812 191.828125 114.921875 191.824219 114.964844 C 191.636719 116.941406 191.460938 118.835938 191.300781 120.09375 C 191.140625 121.382812 190.996094 122.03125 190.875 122.179688 C 190.632812 122.5 190.480469 120.875 190.480469 121.328125 C 190.480469 128.808594 190.480469 136.289062 190.480469 143.765625 Z M 190.480469 143.765625 " fill-opacity="1" fill-rule="nonzero"/><path fill="#ffbd59" d="M 186.257812 136.652344 C 186.257812 136.84375 186.40625 138.378906 186.648438 138.488281 C 186.773438 138.554688 186.917969 138.25 187.078125 137.484375 C 187.238281 136.730469 187.414062 135.515625 187.601562 134.199219 C 187.601562 134.171875 187.605469 134.144531 187.609375 134.117188 C 187.792969 132.800781 187.972656 131.535156 188.132812 130.691406 C 188.292969 129.832031 188.4375 129.398438 188.558594 129.300781 C 188.800781 129.085938 188.953125 130.171875 188.953125 129.867188 C 188.953125 124.878906 188.953125 119.886719 188.953125 114.894531 C 188.953125 114.703125 188.804688 113.171875 188.558594 113.058594 C 188.4375 112.996094 188.292969 113.296875 188.132812 114.066406 C 187.972656 114.816406 187.792969 116.035156 187.609375 117.351562 C 187.605469 117.375 187.601562 117.402344 187.601562 117.429688 C 187.414062 118.75 187.238281 120.015625 187.078125 120.855469 C 186.917969 121.714844 186.773438 122.148438 186.648438 122.25 C 186.40625 122.460938 186.257812 121.375 186.257812 121.679688 C 186.257812 126.667969 186.257812 131.660156 186.257812 136.652344 Z M 186.257812 136.652344 " fill-opacity="1" fill-rule="nonzero"/><path fill="#ffbd59" d="M 182.019531 139.410156 C 182.019531 139.699219 182.167969 141.992188 182.414062 142.164062 C 182.535156 142.253906 182.679688 141.800781 182.839844 140.652344 C 183.003906 139.523438 183.179688 137.699219 183.363281 135.730469 C 183.367188 135.691406 183.371094 135.648438 183.375 135.601562 C 183.558594 133.632812 183.734375 131.734375 183.898438 130.476562 C 184.058594 129.1875 184.203125 128.539062 184.324219 128.386719 C 184.570312 128.070312 184.71875 129.695312 184.71875 129.242188 C 184.71875 121.761719 184.71875 114.285156 184.71875 106.800781 C 184.71875 106.511719 184.570312 104.21875 184.324219 104.042969 C 184.203125 103.953125 184.058594 104.40625 183.898438 105.554688 C 183.738281 106.679688 183.5625 108.503906 183.378906 110.476562 C 183.371094 110.519531 183.371094 110.5625 183.367188 110.597656 C 183.179688 112.570312 183.003906 114.46875 182.84375 115.730469 C 182.683594 117.019531 182.539062 117.667969 182.417969 117.820312 C 182.175781 118.136719 182.023438 116.515625 182.023438 116.96875 C 182.019531 124.449219 182.019531 131.929688 182.019531 139.410156 Z M 182.019531 139.410156 " fill-opacity="1" fill-rule="nonzero"/><path fill="#ffbd59" d="M 177.664062 126.84375 C 177.667969 127.136719 177.820312 129.433594 178.0625 129.601562 C 178.183594 129.691406 178.324219 129.242188 178.488281 128.089844 C 178.648438 126.964844 178.824219 125.140625 179.011719 123.167969 C 179.011719 123.128906 179.015625 123.085938 179.023438 123.046875 C 179.207031 121.070312 179.386719 119.171875 179.546875 117.914062 C 179.710938 116.625 179.851562 115.976562 179.972656 115.828125 C 180.214844 115.507812 180.371094 117.132812 180.371094 116.679688 C 180.371094 109.199219 180.371094 101.722656 180.371094 94.242188 C 180.371094 93.949219 180.214844 91.652344 179.972656 91.488281 C 179.851562 91.394531 179.710938 91.84375 179.546875 93 C 179.386719 94.121094 179.207031 95.941406 179.023438 97.917969 C 179.019531 97.957031 179.015625 98 179.011719 98.039062 C 178.824219 100.015625 178.648438 101.914062 178.488281 103.175781 C 178.328125 104.460938 178.183594 105.109375 178.0625 105.257812 C 177.820312 105.578125 177.664062 103.953125 177.664062 104.40625 C 177.664062 111.886719 177.664062 119.367188 177.664062 126.84375 Z M 177.664062 126.84375 " fill-opacity="1" fill-rule="nonzero"/><path fill="#ffbd59" d="M 173.613281 162.253906 C 173.613281 162.421875 173.757812 168.101562 173.984375 170.074219 C 174.097656 171.085938 174.234375 171.167969 174.382812 169.910156 C 174.535156 168.722656 174.703125 166.195312 174.875 163.515625 C 175.046875 160.832031 175.214844 158.238281 175.363281 156.921875 C 175.511719 155.539062 175.652344 155.433594 175.761719 156.21875 C 175.992188 157.734375 176.132812 162.785156 176.132812 162.257812 C 176.132812 138.84375 176.132812 115.429688 176.132812 92.015625 C 176.132812 91.84375 175.992188 86.167969 175.761719 84.195312 C 175.652344 83.179688 175.511719 83.101562 175.363281 84.359375 C 175.214844 85.550781 175.050781 88.074219 174.875 90.753906 C 174.703125 93.4375 174.535156 96.03125 174.382812 97.351562 C 174.234375 98.730469 174.097656 98.839844 173.984375 98.054688 C 173.757812 96.535156 173.613281 91.484375 173.613281 92.011719 C 173.613281 115.425781 173.613281 138.839844 173.613281 162.253906 Z M 173.613281 162.253906 " fill-opacity="1" fill-rule="nonzero"/><path fill="#ffbd59" d="M 169.566406 168.585938 C 169.566406 168.765625 169.703125 174.945312 169.929688 177.097656 C 170.046875 178.199219 170.183594 178.285156 170.332031 176.917969 C 170.480469 175.617188 170.648438 172.871094 170.824219 169.953125 C 170.992188 167.03125 171.160156 164.207031 171.308594 162.773438 C 171.460938 161.269531 171.59375 161.152344 171.710938 162.007812 C 171.933594 163.65625 172.078125 169.152344 172.078125 168.582031 C 172.078125 143.09375 172.078125 117.609375 172.078125 92.121094 C 172.078125 91.9375 171.9375 85.757812 171.710938 83.609375 C 171.59375 82.507812 171.460938 82.421875 171.308594 83.789062 C 171.160156 85.085938 170.992188 87.832031 170.824219 90.753906 C 170.648438 93.671875 170.480469 96.496094 170.332031 97.929688 C 170.183594 99.4375 170.042969 99.550781 169.929688 98.699219 C 169.703125 97.046875 169.566406 91.550781 169.566406 92.121094 C 169.566406 117.609375 169.566406 143.097656 169.566406 168.585938 Z M 169.566406 168.585938 " fill-opacity="1" fill-rule="nonzero"/><path fill="#ffbd59" d="M 165.511719 171.929688 C 165.511719 172.105469 165.652344 178.039062 165.882812 180.101562 C 165.996094 181.160156 166.132812 181.242188 166.28125 179.925781 C 166.429688 178.683594 166.597656 176.042969 166.769531 173.242188 C 166.945312 170.4375 167.109375 167.726562 167.261719 166.347656 C 167.410156 164.902344 167.546875 164.792969 167.660156 165.613281 C 167.886719 167.199219 168.027344 172.476562 168.027344 171.929688 C 168.027344 147.453125 168.027344 122.980469 168.027344 98.507812 C 168.027344 98.332031 167.886719 92.394531 167.660156 90.332031 C 167.546875 89.273438 167.410156 89.191406 167.261719 90.503906 C 167.109375 91.75 166.945312 94.386719 166.769531 97.191406 C 166.597656 99.992188 166.429688 102.707031 166.28125 104.082031 C 166.128906 105.53125 165.996094 105.640625 165.882812 104.820312 C 165.652344 103.234375 165.511719 97.957031 165.511719 98.507812 C 165.511719 122.980469 165.511719 147.457031 165.511719 171.929688 Z M 165.511719 171.929688 " fill-opacity="1" fill-rule="nonzero"/><path fill="#ffbd59" d="M 161.632812 174.21875 C 161.632812 174.472656 161.765625 176.851562 161.976562 177.746094 C 162.085938 178.203125 162.210938 178.28125 162.351562 177.828125 C 162.492188 177.398438 162.644531 176.433594 162.808594 175.386719 C 162.96875 174.339844 163.121094 173.3125 163.261719 172.761719 C 163.402344 172.1875 163.527344 172.097656 163.632812 172.34375 C 163.847656 172.8125 163.976562 174.609375 163.976562 174.21875 C 163.976562 165.542969 163.976562 156.871094 163.976562 148.195312 C 163.976562 147.941406 163.84375 145.558594 163.632812 144.667969 C 163.527344 144.210938 163.402344 144.132812 163.261719 144.585938 C 163.121094 145.015625 162.96875 145.980469 162.808594 147.023438 C 162.644531 148.070312 162.492188 149.101562 162.351562 149.648438 C 162.210938 150.226562 162.085938 150.316406 161.976562 150.070312 C 161.769531 149.601562 161.632812 147.800781 161.632812 148.195312 C 161.632812 156.871094 161.632812 165.542969 161.632812 174.21875 Z M 161.632812 174.21875 " fill-opacity="1" fill-rule="nonzero"/><path fill="#ffbd59" d="M 157.648438 176.253906 C 157.648438 176.523438 157.777344 179.074219 157.988281 180.027344 C 158.097656 180.515625 158.222656 180.601562 158.363281 180.117188 C 158.503906 179.65625 158.65625 178.625 158.820312 177.507812 C 158.980469 176.386719 159.132812 175.285156 159.273438 174.703125 C 159.417969 174.089844 159.539062 173.988281 159.644531 174.25 C 159.859375 174.75 159.988281 176.675781 159.988281 176.257812 C 159.988281 166.976562 159.988281 157.699219 159.988281 148.425781 C 159.988281 148.152344 159.859375 145.601562 159.644531 144.648438 C 159.539062 144.160156 159.414062 144.074219 159.273438 144.5625 C 159.132812 145.023438 158.980469 146.054688 158.820312 147.171875 C 158.65625 148.292969 158.503906 149.394531 158.363281 149.980469 C 158.222656 150.59375 158.097656 150.6875 157.988281 150.429688 C 157.78125 149.929688 157.648438 148.003906 157.648438 148.425781 C 157.648438 157.699219 157.648438 166.976562 157.648438 176.253906 Z M 157.648438 176.253906 " fill-opacity="1" fill-rule="nonzero"/><path fill="#ffbd59" d="M 153.773438 177.539062 C 153.773438 177.8125 153.902344 180.386719 154.113281 181.351562 C 154.21875 181.84375 154.347656 181.929688 154.484375 181.4375 C 154.625 180.972656 154.777344 179.929688 154.941406 178.800781 C 155.101562 177.671875 155.257812 176.558594 155.398438 175.96875 C 155.535156 175.347656 155.664062 175.25 155.769531 175.515625 C 155.980469 176.019531 156.109375 177.964844 156.109375 177.539062 C 156.109375 168.167969 156.109375 158.792969 156.109375 149.421875 C 156.109375 149.148438 155.980469 146.570312 155.769531 145.609375 C 155.664062 145.113281 155.535156 145.027344 155.398438 145.519531 C 155.257812 145.984375 155.101562 147.027344 154.941406 148.15625 C 154.78125 149.285156 154.625 150.402344 154.484375 150.992188 C 154.34375 151.613281 154.21875 151.710938 154.113281 151.445312 C 153.902344 150.941406 153.773438 148.996094 153.773438 149.421875 C 153.773438 158.792969 153.773438 168.167969 153.773438 177.539062 Z M 153.773438 177.539062 " fill-opacity="1" fill-rule="nonzero"/><path fill="#ffbd59" d="M 149.894531 177.082031 C 149.894531 177.347656 150.027344 179.8125 150.238281 180.738281 C 150.34375 181.214844 150.472656 181.296875 150.609375 180.824219 C 150.75 180.382812 150.902344 179.382812 151.066406 178.296875 C 151.226562 177.214844 151.382812 176.144531 151.523438 175.578125 C 151.660156 174.984375 151.785156 174.886719 151.894531 175.144531 C 152.105469 175.628906 152.238281 177.492188 152.238281 177.082031 C 152.238281 168.097656 152.238281 159.109375 152.238281 150.125 C 152.238281 149.859375 152.105469 147.390625 151.894531 146.464844 C 151.789062 145.992188 151.664062 145.910156 151.523438 146.382812 C 151.382812 146.828125 151.226562 147.828125 151.066406 148.910156 C 150.90625 149.996094 150.75 151.0625 150.609375 151.628906 C 150.472656 152.222656 150.34375 152.316406 150.238281 152.0625 C 150.023438 151.578125 149.894531 149.714844 149.894531 150.125 C 149.894531 159.109375 149.894531 168.097656 149.894531 177.082031 Z M 149.894531 177.082031 " fill-opacity="1" fill-rule="nonzero"/><path fill="#ffbd59" d="M 146.085938 176.367188 C 146.085938 176.617188 146.214844 178.84375 146.417969 179.679688 C 146.523438 180.105469 146.644531 180.183594 146.78125 179.765625 C 146.914062 179.367188 147.066406 178.476562 147.222656 177.503906 C 147.378906 176.535156 147.53125 175.578125 147.664062 175.066406 C 147.800781 174.53125 147.921875 174.445312 148.027344 174.664062 C 148.234375 175.089844 148.359375 176.746094 148.359375 176.367188 C 148.359375 168.355469 148.359375 160.347656 148.359375 152.332031 C 148.359375 152.082031 148.230469 149.859375 148.027344 149.023438 C 147.921875 148.59375 147.800781 148.519531 147.664062 148.9375 C 147.53125 149.335938 147.378906 150.226562 147.222656 151.199219 C 147.066406 152.167969 146.914062 153.125 146.78125 153.636719 C 146.644531 154.171875 146.519531 154.257812 146.417969 154.039062 C 146.214844 153.609375 146.085938 151.957031 146.085938 152.335938 C 146.085938 160.347656 146.085938 168.355469 146.085938 176.367188 Z M 146.085938 176.367188 " fill-opacity="1" fill-rule="nonzero"/><path fill="#ffbd59" d="M 142.429688 175.507812 C 142.429688 175.75 142.546875 177.613281 142.742188 178.328125 C 142.835938 178.691406 142.953125 178.765625 143.078125 178.425781 C 143.207031 178.105469 143.34375 177.371094 143.492188 176.570312 C 143.636719 175.769531 143.777344 174.976562 143.902344 174.546875 C 144.027344 174.101562 144.144531 174.019531 144.238281 174.191406 C 144.429688 174.519531 144.550781 175.859375 144.550781 175.511719 C 144.550781 168.980469 144.550781 162.449219 144.550781 155.914062 C 144.550781 155.675781 144.433594 153.808594 144.238281 153.097656 C 144.144531 152.734375 144.027344 152.660156 143.902344 153 C 143.773438 153.324219 143.636719 154.054688 143.492188 154.855469 C 143.34375 155.65625 143.203125 156.449219 143.078125 156.878906 C 142.953125 157.328125 142.835938 157.40625 142.742188 157.234375 C 142.550781 156.90625 142.429688 155.570312 142.429688 155.917969 C 142.429688 162.445312 142.429688 168.976562 142.429688 175.507812 Z M 142.429688 175.507812 " fill-opacity="1" fill-rule="nonzero"/><path fill="#ffbd59" d="M 138.667969 172.917969 C 138.667969 173.175781 138.792969 174.585938 138.996094 175.148438 C 139.09375 175.441406 139.214844 175.511719 139.347656 175.289062 C 139.480469 175.074219 139.625 174.558594 139.78125 173.988281 C 139.933594 173.417969 140.078125 172.84375 140.210938 172.523438 C 140.34375 172.1875 140.464844 172.105469 140.566406 172.203125 C 140.765625 172.378906 140.890625 173.253906 140.890625 172.917969 C 140.890625 168.472656 140.890625 164.023438 140.890625 159.578125 C 140.890625 159.320312 140.769531 157.914062 140.566406 157.347656 C 140.464844 157.058594 140.34375 156.984375 140.210938 157.210938 C 140.078125 157.421875 139.933594 157.9375 139.78125 158.507812 C 139.625 159.078125 139.480469 159.652344 139.347656 159.972656 C 139.214844 160.308594 139.09375 160.390625 138.996094 160.296875 C 138.792969 160.117188 138.667969 159.246094 138.667969 159.578125 C 138.667969 164.023438 138.667969 168.472656 138.667969 172.917969 Z M 138.667969 172.917969 " fill-opacity="1" fill-rule="nonzero"/><g clip-path="url(#f0ec276a20)"><path fill="#ffbd59" d="M 134.90625 168.839844 C 134.90625 169.097656 135.03125 169.957031 135.234375 170.292969 C 135.433594 170.679688 135.710938 170.542969 136.019531 169.953125 C 136.328125 169.359375 136.605469 168.972656 136.804688 168.957031 C 137.007812 168.894531 137.132812 169.195312 137.132812 168.839844 C 137.132812 167.238281 137.132812 165.632812 137.132812 164.027344 C 137.132812 163.769531 137.007812 162.90625 136.804688 162.574219 C 136.605469 162.183594 136.324219 162.324219 136.019531 162.914062 C 135.710938 163.507812 135.433594 163.894531 135.234375 163.910156 C 135.03125 163.976562 134.90625 163.671875 134.90625 164.027344 C 134.90625 165.632812 134.90625 167.238281 134.90625 168.839844 Z M 134.90625 168.839844 " fill-opacity="1" fill-rule="nonzero"/></g><g fill="#ffbd59" fill-opacity="1"><g transform="translate(83.445182, 243.870027)"><g><path d="M 15.390625 -32.9375 L 2.3125 -32.9375 L 2.3125 0 L 15.390625 0 C 26.25 0 31.703125 -8.1875 31.703125 -16.421875 C 31.703125 -24.65625 26.25 -32.9375 15.390625 -32.9375 Z M 15.390625 -7.671875 L 10.296875 -7.671875 L 10.296875 -25.3125 L 15.390625 -25.3125 C 20.9375 -25.3125 23.765625 -20.75 23.765625 -16.421875 C 23.765625 -12.09375 20.9375 -7.671875 15.390625 -7.671875 Z M 15.390625 -7.671875 "/></g></g></g><g fill="#ffbd59" fill-opacity="1"><g transform="translate(114.302675, 243.870027)"><g><path d="M 26.90625 -12.796875 C 26.90625 -21.5 20.328125 -25.828125 13.78125 -25.828125 C 7.15625 -25.828125 0.609375 -21.5 0.609375 -12.796875 C 0.609375 -4.09375 7.15625 0.28125 13.734375 0.28125 C 19 0.28125 24.234375 -2.5 26.15625 -8.046875 L 18.109375 -8.046875 C 17.03125 -6.875 15.484375 -6.296875 13.828125 -6.296875 C 11.578125 -6.34375 9.265625 -7.53125 8.375 -9.875 L 26.625 -9.875 C 26.8125 -10.828125 26.90625 -11.765625 26.90625 -12.796875 Z M 18.8125 -15.671875 L 8.65625 -15.671875 C 9.40625 -18.15625 11.4375 -19.390625 13.640625 -19.390625 C 16.046875 -19.390625 18.109375 -18.203125 18.8125 -15.671875 Z M 18.8125 -15.671875 "/></g></g></g><g fill="#ffbd59" fill-opacity="1"><g transform="translate(142.149661, 243.870027)"><g><path d="M 15.390625 0.09375 L 25.03125 -24.28125 L 25.03125 -25.453125 L 17.359375 -25.453125 L 14.15625 -17.3125 L 12.375 -10.828125 L 10.53125 -17.3125 L 7.390625 -25.453125 L -0.328125 -25.453125 L -0.328125 -24.28125 L 9.3125 0.09375 Z M 15.390625 0.09375 "/></g></g></g><g fill="#ffbd59" fill-opacity="1"><g transform="translate(166.562791, 243.870027)"><g><path d="M 17.640625 -32.9375 L 2.40625 -32.9375 L 2.40625 0 L 17.546875 0 C 24.46875 0 28.09375 -5.3125 28.09375 -10.625 C 28.09375 -13.40625 26.671875 -16.28125 23.1875 -18.0625 C 25.359375 -19.578125 26.34375 -21.875 26.34375 -24.140625 C 26.34375 -28.46875 22.859375 -32.9375 17.640625 -32.9375 Z M 16.421875 -21.03125 L 10.34375 -21.03125 L 10.34375 -25.640625 L 16.515625 -25.640625 C 17.78125 -25.640625 18.484375 -24.515625 18.484375 -23.375 C 18.484375 -22.203125 17.828125 -21.03125 16.421875 -21.03125 Z M 17.546875 -7.625 L 10.34375 -7.625 L 10.34375 -13.59375 L 17.546875 -13.59375 C 19.234375 -13.59375 20.09375 -12.09375 20.09375 -10.578125 C 20.09375 -9.078125 19.234375 -7.625 17.546875 -7.625 Z M 17.546875 -7.625 "/></g></g></g><g fill="#ffbd59" fill-opacity="1"><g transform="translate(194.221625, 243.870027)"><g><path d="M 26.90625 -12.796875 C 26.90625 -21.5 20.328125 -25.828125 13.78125 -25.828125 C 7.15625 -25.828125 0.609375 -21.5 0.609375 -12.796875 C 0.609375 -4.09375 7.15625 0.28125 13.734375 0.28125 C 19 0.28125 24.234375 -2.5 26.15625 -8.046875 L 18.109375 -8.046875 C 17.03125 -6.875 15.484375 -6.296875 13.828125 -6.296875 C 11.578125 -6.34375 9.265625 -7.53125 8.375 -9.875 L 26.625 -9.875 C 26.8125 -10.828125 26.90625 -11.765625 26.90625 -12.796875 Z M 18.8125 -15.671875 L 8.65625 -15.671875 C 9.40625 -18.15625 11.4375 -19.390625 13.640625 -19.390625 C 16.046875 -19.390625 18.109375 -18.203125 18.8125 -15.671875 Z M 18.8125 -15.671875 "/></g></g></g><g fill="#ffbd59" fill-opacity="1"><g transform="translate(222.068612, 243.870027)"><g><path d="M 12.984375 -25.875 C 4.703125 -25.875 0.65625 -20.046875 0.65625 -13.078125 C 0.65625 -6.0625 4.84375 0.328125 12.890625 0.328125 C 15.34375 0.328125 17.828125 -0.375 19.578125 -2.546875 L 19.578125 0 L 26.953125 0 L 26.953125 -25.453125 L 19.578125 -25.453125 L 19.578125 -22.8125 C 17.921875 -24.9375 15.484375 -25.875 12.984375 -25.875 Z M 13.78125 -6.78125 C 10.015625 -6.78125 8.09375 -9.828125 8.09375 -12.890625 C 8.09375 -16 9.96875 -19.046875 13.78125 -19.046875 C 16.984375 -19.046875 19.578125 -16.28125 19.578125 -12.890625 C 19.578125 -9.5 16.984375 -6.78125 13.78125 -6.78125 Z M 13.78125 -6.78125 "/></g></g></g><g fill="#ffbd59" fill-opacity="1"><g transform="translate(250.056716, 243.870027)"><g><path d="M 16.9375 0.046875 L 16.703125 -6.0625 C 16.046875 -5.921875 15.296875 -5.828125 14.578125 -5.828125 C 12.796875 -5.828125 11.15625 -6.546875 11.15625 -8.796875 L 11.15625 -18.8125 L 16.46875 -18.8125 L 16.46875 -25.171875 L 11.15625 -25.171875 L 11.15625 -30.671875 L 3.765625 -30.015625 L 3.765625 -25.171875 L 0.421875 -25.171875 L 0.421875 -18.8125 L 3.765625 -18.8125 L 3.765625 -8.796875 C 3.765625 -2.21875 7.15625 0.421875 12.75 0.421875 C 14.015625 0.421875 15.4375 0.28125 16.9375 0.046875 Z M 16.9375 0.046875 "/></g></g></g><g fill="#ffbd59" fill-opacity="1"><g transform="translate(267.319898, 243.870027)"><g><path d="M 0.9375 -17.265625 C 0.9375 -11.671875 5.921875 -9.828125 10.734375 -9.40625 C 11.953125 -9.3125 14.765625 -9.546875 14.765625 -7.71875 C 14.765625 -6.875 13.546875 -6.15625 11.71875 -6.15625 C 9.96875 -6.15625 8.046875 -6.828125 8 -8.5625 L 0.5625 -8.5625 C 0.65625 -2.0625 5.265625 0.65625 11.34375 0.65625 C 16.984375 0.65625 22.203125 -1.5 22.203125 -7.90625 C 22.203125 -13.921875 16.796875 -16.1875 11.484375 -16.328125 C 10.390625 -16.375 8.421875 -16.421875 8.421875 -17.734375 C 8.421875 -19.09375 9.921875 -19.484375 11.015625 -19.484375 C 12.5625 -19.484375 14.53125 -19.34375 14.578125 -17.359375 L 21.6875 -17.359375 C 21.640625 -23.28125 16.890625 -26.0625 11.4375 -26.0625 C 5.734375 -26.0625 0.9375 -23.421875 0.9375 -17.265625 Z M 0.9375 -17.265625 "/></g></g></g></svg>